<svg width="16" height="26" viewBox="0 0 16 26" fill="none" xmlns="http://www.w3.org/2000/svg">
<path fill-rule="evenodd" clip-rule="evenodd" d="M14.5249 11.6194C14.4346 11.7569 14.3121 11.8355 14.1831 11.8355C13.706 11.8355 13.3192 12.4247 13.3192 13.1415C13.3192 13.8633 13.7015 14.4495 14.1741 14.4574C14.4404 14.4613 14.6667 14.7441 14.6667 15.1497V17.6685C14.6667 19.7886 13.5384 21.5081 12.1458 21.5081H10.0439C9.8266 21.5081 9.65059 21.24 9.65059 20.9091V18.788C9.65059 18.3755 9.43782 18.0515 9.16703 18.0515C8.90268 18.0515 8.68347 18.3755 8.68347 18.788V20.9091C8.68347 21.24 8.50746 21.5081 8.29082 21.5081H3.85433C2.46813 21.5081 1.33337 19.7896 1.33337 17.6685V15.1497C1.33337 14.7441 1.55968 14.4613 1.82596 14.4574C2.2992 14.4495 2.68089 13.8633 2.68089 13.1415C2.68089 12.4443 2.30694 11.914 1.81693 11.914C1.68798 11.914 1.56548 11.8355 1.47522 11.698C1.38495 11.5605 1.33337 11.3739 1.33337 11.1775V8.63417C1.33337 6.51699 2.4707 4.78476 3.86078 4.78476H8.29082C8.50746 4.78476 8.68347 5.05284 8.68347 5.38377V7.89767C8.68347 8.30029 8.90268 8.63417 9.16703 8.63417C9.43782 8.63417 9.65059 8.30029 9.65059 7.89767V5.38377C9.65059 5.05284 9.8266 4.78476 10.0439 4.78476H12.1458C13.5384 4.78476 14.6667 6.50324 14.6667 8.62435V11.099C14.6667 11.2954 14.6151 11.4819 14.5249 11.6194ZM9.16703 16.1464C9.43782 16.1464 9.65059 15.8125 9.65059 15.4099V11.4819C9.65059 11.0793 9.43782 10.7454 9.16703 10.7454C8.90268 10.7454 8.68347 11.0793 8.68347 11.4819V15.4099C8.68347 15.8125 8.90268 16.1464 9.16703 16.1464Z" fill="#200E32"/>
</svg>
