<svg width="16" height="17" viewBox="0 0 16 17" fill="none" xmlns="http://www.w3.org/2000/svg">
<path d="M12.6249 10.5858C12.1211 10.4694 11.7226 10.7206 11.3697 10.9401C11.0083 11.1662 10.3211 11.7651 9.92723 11.6118C7.91057 10.7198 6.01385 8.82358 5.1928 6.64845C5.04809 6.21628 5.60294 5.47337 5.81188 5.08055C6.01463 4.7003 6.24369 4.26813 6.13922 3.72288C6.04481 3.23291 4.82367 1.56366 4.39186 1.1072C4.10708 0.805679 3.81534 0.639843 3.51586 0.613042C2.3899 0.561113 1.13239 2.17508 0.911845 2.56119C0.359315 3.38451 0.36241 4.48003 0.921131 5.80839C2.26763 9.37637 7.36036 14.761 10.6941 16.2619C11.3093 16.571 11.8719 16.7259 12.3772 16.7259C12.8717 16.7259 13.3121 16.5777 13.6905 16.2837C13.976 16.1069 15.54 14.689 15.499 13.4469C15.4742 13.1303 15.3202 12.8137 15.0432 12.5071C14.6214 12.0389 13.0776 10.688 12.6249 10.5858Z" fill="#200E32"/>
</svg>
