<svg width="10" height="15" viewBox="0 0 10 15" fill="none" xmlns="http://www.w3.org/2000/svg">
<path d="M9.84 9.704C9.84 10.312 9.67467 10.872 9.344 11.384C9.024 11.8853 8.54933 12.2907 7.92 12.6C7.30133 12.9093 6.55467 13.08 5.68 13.112V14.392H4.672V13.08C3.49867 12.9733 2.53867 12.616 1.792 12.008C1.056 11.4 0.666667 10.5733 0.624 9.528H3.968C4.01067 10.072 4.24533 10.4293 4.672 10.6V8.552C3.776 8.30667 3.072 8.08267 2.56 7.88C2.048 7.66667 1.58933 7.32533 1.184 6.856C0.789333 6.38667 0.592 5.74667 0.592 4.936C0.592 4.264 0.768 3.68267 1.12 3.192C1.48267 2.69067 1.97333 2.30667 2.592 2.04C3.21067 1.76267 3.904 1.60267 4.672 1.56V0.263999H5.68V1.56C6.864 1.64533 7.80267 1.98667 8.496 2.584C9.2 3.18133 9.58933 4.00267 9.664 5.048H6.288C6.24533 4.55733 6.04267 4.232 5.68 4.072V6.104L6.08 6.232C6.848 6.44533 7.48267 6.66933 7.984 6.904C8.496 7.128 8.93333 7.46933 9.296 7.928C9.65867 8.376 9.84 8.968 9.84 9.704ZM3.936 4.792C3.936 5.176 4.18133 5.49067 4.672 5.736V3.976C4.18133 4.06133 3.936 4.33333 3.936 4.792ZM5.68 10.68C5.936 10.6267 6.13867 10.5253 6.288 10.376C6.43733 10.216 6.512 10.0187 6.512 9.784C6.512 9.41067 6.23467 9.10667 5.68 8.872V10.68Z" fill="black"/>
</svg>
