<svg width="18" height="16" viewBox="0 0 18 16" fill="none" xmlns="http://www.w3.org/2000/svg">
<path fill-rule="evenodd" clip-rule="evenodd" d="M5.8575 1.33331H12.1432C14.46 1.33331 15.75 2.51998 15.75 4.55331V11.44C15.75 13.5066 14.46 14.6666 12.1432 14.6666H5.8575C3.5775 14.6666 2.25 13.5066 2.25 11.44V4.55331C2.25 2.51998 3.5775 1.33331 5.8575 1.33331ZM6.06 4.43998V4.43331H8.30175C8.625 4.43331 8.8875 4.66665 8.8875 4.95265C8.8875 5.24665 8.625 5.47998 8.30175 5.47998H6.06C5.73675 5.47998 5.475 5.24665 5.475 4.95998C5.475 4.67331 5.73675 4.43998 6.06 4.43998ZM6.06 8.49331H11.94C12.2625 8.49331 12.525 8.25998 12.525 7.97331C12.525 7.68665 12.2625 7.45265 11.94 7.45265H6.06C5.73675 7.45265 5.475 7.68665 5.475 7.97331C5.475 8.25998 5.73675 8.49331 6.06 8.49331ZM6.06 11.54H11.94C12.2393 11.5133 12.465 11.286 12.465 11.02C12.465 10.7466 12.2393 10.52 11.94 10.4933H6.06C5.835 10.4733 5.6175 10.5666 5.4975 10.74C5.3775 10.9066 5.3775 11.1266 5.4975 11.3C5.6175 11.4666 5.835 11.5666 6.06 11.54Z" fill="#200E32"/>
</svg>
