<svg width="20" height="21" viewBox="0 0 20 21" fill="none" xmlns="http://www.w3.org/2000/svg">
<path fill-rule="evenodd" clip-rule="evenodd" d="M6.50833 1.71216H13.4925C16.0667 1.71216 17.5 3.23595 17.5 5.84693V14.69C17.5 17.3438 16.0667 18.8334 13.4925 18.8334H6.50833C3.975 18.8334 2.5 17.3438 2.5 14.69V5.84693C2.5 3.23595 3.975 1.71216 6.50833 1.71216ZM6.73333 5.7014V5.69284H9.22417C9.58333 5.69284 9.875 5.99246 9.875 6.35971C9.875 6.73723 9.58333 7.03686 9.22417 7.03686H6.73333C6.37417 7.03686 6.08333 6.73723 6.08333 6.36913C6.08333 6.00102 6.37417 5.7014 6.73333 5.7014ZM6.73333 10.9062H13.2667C13.625 10.9062 13.9167 10.6066 13.9167 10.2385C13.9167 9.87042 13.625 9.56994 13.2667 9.56994H6.73333C6.37417 9.56994 6.08333 9.87042 6.08333 10.2385C6.08333 10.6066 6.37417 10.9062 6.73333 10.9062ZM6.73333 14.8184H13.2667C13.5992 14.7842 13.85 14.4923 13.85 14.1507C13.85 13.7997 13.5992 13.5087 13.2667 13.4744H6.73333C6.48333 13.4487 6.24167 13.5686 6.10833 13.7912C5.975 14.0052 5.975 14.2877 6.10833 14.5103C6.24167 14.7243 6.48333 14.8527 6.73333 14.8184Z" fill="#200E32"/>
</svg>
