<svg width="14" height="14" viewBox="0 0 14 14" fill="none" xmlns="http://www.w3.org/2000/svg">
<path fill-rule="evenodd" clip-rule="evenodd" d="M2.04163 6.01869C2.04163 3.33544 4.28389 1.16667 6.99614 1.16667C9.71603 1.16667 11.9583 3.33544 11.9583 6.01869C11.9583 7.37082 11.4665 8.62612 10.6572 9.69009C9.76426 10.8637 8.66372 11.8863 7.42494 12.6889C7.14142 12.8744 6.88555 12.8884 6.57439 12.6889C5.32855 11.8863 4.22801 10.8637 3.34275 9.69009C2.53278 8.62612 2.04163 7.37082 2.04163 6.01869ZM5.36326 6.16977C5.36326 7.06866 6.09676 7.77564 6.99614 7.77564C7.8961 7.77564 8.63666 7.06866 8.63666 6.16977C8.63666 5.27788 7.8961 4.53649 6.99614 4.53649C6.09676 4.53649 5.36326 5.27788 5.36326 6.16977Z" fill="#200E32"/>
</svg>
