<svg width="19" height="20" viewBox="0 0 19 20" fill="none" xmlns="http://www.w3.org/2000/svg">
<path fill-rule="evenodd" clip-rule="evenodd" d="M2.77075 8.3131C2.77075 4.60697 5.81382 1.61145 9.49473 1.61145C13.186 1.61145 16.2291 4.60697 16.2291 8.3131C16.2291 10.1807 15.5617 11.9145 14.4633 13.3841C13.2515 15.0051 11.7579 16.4174 10.0767 17.5261C9.69191 17.7823 9.34465 17.8016 8.92236 17.5261C7.23158 16.4174 5.73799 15.0051 4.53656 13.3841C3.43732 11.9145 2.77075 10.1807 2.77075 8.3131ZM7.27868 8.52177C7.27868 9.76333 8.27415 10.7398 9.49473 10.7398C10.7161 10.7398 11.7212 9.76333 11.7212 8.52177C11.7212 7.28989 10.7161 6.26587 9.49473 6.26587C8.27415 6.26587 7.27868 7.28989 7.27868 8.52177Z" fill="#200E32"/>
</svg>
