<svg width="10" height="15" viewBox="0 0 10 15" fill="none" xmlns="http://www.w3.org/2000/svg">
<path d="M9.84 10.3079C9.84 10.9159 9.67467 11.4759 9.344 11.9879C9.024 12.4893 8.54933 12.8946 7.92 13.2039C7.30133 13.5133 6.55467 13.6839 5.68 13.7159V14.9959H4.672V13.6839C3.49867 13.5773 2.53867 13.2199 1.792 12.6119C1.056 12.0039 0.666667 11.1773 0.624 10.1319H3.968C4.01067 10.6759 4.24533 11.0333 4.672 11.2039V9.15594C3.776 8.91061 3.072 8.68661 2.56 8.48394C2.048 8.27061 1.58933 7.92928 1.184 7.45994C0.789333 6.99061 0.592 6.35061 0.592 5.53994C0.592 4.86794 0.768 4.28661 1.12 3.79594C1.48267 3.29461 1.97333 2.91061 2.592 2.64394C3.21067 2.36661 3.904 2.20661 4.672 2.16394V0.867942H5.68V2.16394C6.864 2.24928 7.80267 2.59061 8.496 3.18794C9.2 3.78528 9.58933 4.60661 9.664 5.65194H6.288C6.24533 5.16128 6.04267 4.83594 5.68 4.67594V6.70794L6.08 6.83594C6.848 7.04928 7.48267 7.27328 7.984 7.50794C8.496 7.73194 8.93333 8.07328 9.296 8.53194C9.65867 8.97994 9.84 9.57194 9.84 10.3079ZM3.936 5.39594C3.936 5.77994 4.18133 6.09461 4.672 6.33994V4.57994C4.18133 4.66528 3.936 4.93728 3.936 5.39594ZM5.68 11.2839C5.936 11.2306 6.13867 11.1293 6.288 10.9799C6.43733 10.8199 6.512 10.6226 6.512 10.3879C6.512 10.0146 6.23467 9.71061 5.68 9.47594V11.2839Z" fill="black"/>
</svg>
