<svg width="14" height="14" viewBox="0 0 14 14" fill="none" xmlns="http://www.w3.org/2000/svg">
<path d="M10.4525 8.35339C10.3014 8.49981 10.232 8.71156 10.2664 8.91923L10.785 11.7892C10.8288 12.0325 10.7261 12.2786 10.5225 12.4192C10.323 12.5651 10.0576 12.5826 9.84001 12.4659L7.25643 11.1184C7.1666 11.0706 7.06685 11.0449 6.96476 11.042H6.80668C6.75185 11.0501 6.69818 11.0676 6.64918 11.0945L4.06501 12.4484C3.93726 12.5126 3.7926 12.5353 3.65085 12.5126C3.30551 12.4472 3.0751 12.1182 3.13168 11.7711L3.65085 8.90114C3.68526 8.69173 3.61585 8.47881 3.46476 8.33006L1.35835 6.28839C1.18218 6.11748 1.12093 5.86081 1.20143 5.62923C1.2796 5.39823 1.4791 5.22964 1.72001 5.19173L4.61918 4.77114C4.83968 4.74839 5.03335 4.61423 5.13251 4.41589L6.41001 1.79673C6.44035 1.73839 6.47943 1.68473 6.52668 1.63923L6.57918 1.59839C6.6066 1.56806 6.6381 1.54298 6.6731 1.52256L6.73668 1.49923L6.83585 1.45839H7.08143C7.30076 1.48114 7.49385 1.61239 7.59476 1.80839L8.88918 4.41589C8.98251 4.60664 9.16393 4.73906 9.37335 4.77114L12.2725 5.19173C12.5175 5.22673 12.7223 5.39589 12.8033 5.62923C12.8798 5.86314 12.8138 6.11981 12.6342 6.28839L10.4525 8.35339Z" fill="#FFC700"/>
</svg>
