<svg width="15" height="17" viewBox="0 0 15 17" fill="none" xmlns="http://www.w3.org/2000/svg">
<path d="M11.3541 10.1904C10.9343 10.0941 10.6022 10.302 10.3082 10.4836C10.007 10.6707 9.43434 11.1662 9.1061 11.0394C7.42555 10.3013 5.84496 8.73231 5.16075 6.93254C5.04015 6.57494 5.50253 5.96023 5.67665 5.6352C5.8456 5.32057 6.03649 4.96298 5.94943 4.51182C5.87075 4.1064 4.85314 2.72521 4.4933 2.34752C4.25598 2.09803 4.01286 1.96081 3.7633 1.93864C2.825 1.89567 1.77708 3.23112 1.59329 3.5506C1.13284 4.23184 1.13542 5.13831 1.60102 6.23744C2.72311 9.1897 6.96705 13.6451 9.74518 14.887C10.2579 15.1427 10.7267 15.271 11.1478 15.271C11.5599 15.271 11.9268 15.1483 12.2421 14.905C12.4801 14.7588 13.7834 13.5855 13.7492 12.5578C13.7286 12.2958 13.6003 12.0339 13.3694 11.7802C13.0179 11.3928 11.7314 10.275 11.3541 10.1904" fill="#200E32"/>
</svg>
