<svg width="16" height="26" viewBox="0 0 16 26" fill="none" xmlns="http://www.w3.org/2000/svg">
<path fill-rule="evenodd" clip-rule="evenodd" d="M14.5247 11.0154C14.4345 11.1529 14.312 11.2315 14.183 11.2315C13.7059 11.2315 13.3191 11.8207 13.3191 12.5375C13.3191 13.2593 13.7014 13.8455 14.174 13.8534C14.4403 13.8573 14.6666 14.1401 14.6666 14.5457V17.0645C14.6666 19.1846 13.5383 20.9041 12.1456 20.9041H10.0438C9.82648 20.9041 9.65047 20.636 9.65047 20.3051V18.184C9.65047 17.7715 9.4377 17.4475 9.16691 17.4475C8.90256 17.4475 8.68335 17.7715 8.68335 18.184V20.3051C8.68335 20.636 8.50733 20.9041 8.2907 20.9041H3.85421C2.468 20.9041 1.33325 19.1856 1.33325 17.0645V14.5457C1.33325 14.1401 1.55956 13.8573 1.82584 13.8534C2.29908 13.8455 2.68077 13.2593 2.68077 12.5375C2.68077 11.8403 2.30682 11.31 1.81681 11.31C1.68786 11.31 1.56536 11.2315 1.4751 11.094C1.38483 10.9565 1.33325 10.7699 1.33325 10.5735V8.03019C1.33325 5.91302 2.47058 4.18079 3.86065 4.18079H8.2907C8.50733 4.18079 8.68335 4.44887 8.68335 4.7798V7.2937C8.68335 7.69632 8.90256 8.03019 9.16691 8.03019C9.4377 8.03019 9.65047 7.69632 9.65047 7.2937V4.7798C9.65047 4.44887 9.82648 4.18079 10.0438 4.18079H12.1456C13.5383 4.18079 14.6666 5.89927 14.6666 8.02037V10.495C14.6666 10.6914 14.615 10.878 14.5247 11.0154ZM9.16691 15.5424C9.4377 15.5424 9.65047 15.2085 9.65047 14.8059V10.878C9.65047 10.4753 9.4377 10.1415 9.16691 10.1415C8.90256 10.1415 8.68335 10.4753 8.68335 10.878V14.8059C8.68335 15.2085 8.90256 15.5424 9.16691 15.5424Z" fill="#200E32"/>
</svg>
