<svg width="16" height="17" viewBox="0 0 16 17" fill="none" xmlns="http://www.w3.org/2000/svg">
<path fill-rule="evenodd" clip-rule="evenodd" d="M3.02659 1.93729H5.27992C6.21992 1.93729 6.97325 2.70395 6.97325 3.64462V5.91729C6.97325 6.86395 6.21992 7.62395 5.27992 7.62395H3.02659C2.09325 7.62395 1.33325 6.86395 1.33325 5.91729V3.64462C1.33325 2.70395 2.09325 1.93729 3.02659 1.93729ZM3.02659 9.58375H5.27992C6.21992 9.58375 6.97325 10.3444 6.97325 11.2911V13.5638C6.97325 14.5038 6.21992 15.2704 5.27992 15.2704H3.02659C2.09325 15.2704 1.33325 14.5038 1.33325 13.5638V11.2911C1.33325 10.3444 2.09325 9.58375 3.02659 9.58375ZM12.9733 1.93729H10.72C9.77999 1.93729 9.02665 2.70395 9.02665 3.64462V5.91729C9.02665 6.86395 9.77999 7.62395 10.72 7.62395H12.9733C13.9067 7.62395 14.6667 6.86395 14.6667 5.91729V3.64462C14.6667 2.70395 13.9067 1.93729 12.9733 1.93729ZM10.72 9.58375H12.9733C13.9067 9.58375 14.6667 10.3444 14.6667 11.2911V13.5638C14.6667 14.5038 13.9067 15.2704 12.9733 15.2704H10.72C9.77999 15.2704 9.02665 14.5038 9.02665 13.5638V11.2911C9.02665 10.3444 9.77999 9.58375 10.72 9.58375Z" fill="#200E32"/>
</svg>
